<svg width="512" height="512" viewBox="0 0 200 200" xmlns="http://www.w3.org/2000/svg">
  <rect width="200" height="200" rx="44" fill="#0a0e17"/>
  <rect x="1" y="1" width="198" height="198" rx="43" fill="none" stroke="#1e2a1e" stroke-width="1.5"/>
  <line x1="0" y1="66" x2="200" y2="66" stroke="#111820" stroke-width="1"/>
  <line x1="0" y1="100" x2="200" y2="100" stroke="#111820" stroke-width="1"/>
  <line x1="0" y1="134" x2="200" y2="134" stroke="#111820" stroke-width="1"/>
  <line x1="66" y1="0" x2="66" y2="200" stroke="#111820" stroke-width="1"/>
  <line x1="100" y1="0" x2="100" y2="200" stroke="#111820" stroke-width="1"/>
  <line x1="134" y1="0" x2="134" y2="200" stroke="#111820" stroke-width="1"/>
  <circle cx="100" cy="85" r="55" fill="#0d2218" opacity="0.8"/>
  <rect x="34" y="105" width="18" height="28" rx="4" fill="#1a3a26"/>
  <rect x="58" y="90" width="18" height="43" rx="4" fill="#1e4a2e"/>
  <rect x="82" y="75" width="18" height="58" rx="4" fill="#226035"/>
  <rect x="106" y="58" width="18" height="75" rx="4" fill="#2d7a42"/>
  <rect x="130" y="42" width="18" height="91" rx="4" fill="#4ade80"/>
  <rect x="34" y="105" width="18" height="4" rx="4" fill="#4ade80" opacity="0.15"/>
  <rect x="58" y="90" width="18" height="4" rx="4" fill="#4ade80" opacity="0.2"/>
  <rect x="82" y="75" width="18" height="4" rx="4" fill="#4ade80" opacity="0.25"/>
  <rect x="106" y="58" width="18" height="4" rx="4" fill="#4ade80" opacity="0.3"/>
  <rect x="130" y="42" width="18" height="4" rx="4" fill="#ffffff" opacity="0.25"/>
  <polyline points="43,103 67,88 91,73 115,56 139,40" fill="none" stroke="#4ade80" stroke-width="2.5" stroke-linecap="round" stroke-linejoin="round" opacity="0.9"/>
  <circle cx="139" cy="40" r="7" fill="#0a0e17"/>
  <circle cx="139" cy="40" r="5" fill="#4ade80"/>
  <circle cx="139" cy="40" r="2.5" fill="#ffffff"/>
  <line x1="28" y1="135" x2="172" y2="135" stroke="#1e2a1e" stroke-width="1.5" stroke-linecap="round"/>
  <text x="100" y="160" text-anchor="middle" font-family="-apple-system,system-ui,sans-serif" font-size="18" font-weight="400" fill="#9ca3af" letter-spacing="2">money</text>
  <text x="100" y="180" text-anchor="middle" font-family="-apple-system,system-ui,sans-serif" font-size="18" font-weight="700" fill="#4ade80" letter-spacing="2">track</text>
</svg>
